<mxfile host="app.diagrams.net" modified="2024-04-23T06:59:08.536Z" agent="Mozilla/5.0 (Windows NT 10.0; Win64; x64; rv:125.0) Gecko/20100101 Firefox/125.0" etag="5GZW-krHsTsbyeGUrTCG" version="24.2.8" type="device">
  <diagram name="Sivu-1" id="LJraBrUYU1PAz4YJDZfd">
    <mxGraphModel dx="1790" dy="993" grid="1" gridSize="10" guides="1" tooltips="1" connect="1" arrows="1" fold="1" page="1" pageScale="1" pageWidth="1600" pageHeight="900" math="0" shadow="0">
      <root>
        <mxCell id="0" />
        <mxCell id="1" parent="0" />
        <mxCell id="5ZeVLC0wiHh2iQjLwEtQ-9" style="edgeStyle=orthogonalEdgeStyle;rounded=0;orthogonalLoop=1;jettySize=auto;html=1;entryX=0.5;entryY=0;entryDx=0;entryDy=0;" edge="1" parent="1" source="3Kk0aiweqvM8bFvhu8e7-1" target="5ZeVLC0wiHh2iQjLwEtQ-5">
          <mxGeometry relative="1" as="geometry" />
        </mxCell>
        <mxCell id="5ZeVLC0wiHh2iQjLwEtQ-30" style="edgeStyle=orthogonalEdgeStyle;rounded=0;orthogonalLoop=1;jettySize=auto;html=1;entryX=0.5;entryY=1;entryDx=0;entryDy=0;exitX=0;exitY=1;exitDx=0;exitDy=0;" edge="1" parent="1" source="3Kk0aiweqvM8bFvhu8e7-1" target="5ZeVLC0wiHh2iQjLwEtQ-10">
          <mxGeometry relative="1" as="geometry">
            <mxPoint x="600" y="80" as="sourcePoint" />
            <Array as="points">
              <mxPoint x="120" y="230" />
              <mxPoint x="120" y="840" />
              <mxPoint x="660" y="840" />
            </Array>
          </mxGeometry>
        </mxCell>
        <mxCell id="5ZeVLC0wiHh2iQjLwEtQ-31" style="edgeStyle=orthogonalEdgeStyle;rounded=0;orthogonalLoop=1;jettySize=auto;html=1;entryX=0.5;entryY=0;entryDx=0;entryDy=0;" edge="1" parent="1" source="3Kk0aiweqvM8bFvhu8e7-1" target="5ZeVLC0wiHh2iQjLwEtQ-17">
          <mxGeometry relative="1" as="geometry">
            <Array as="points">
              <mxPoint x="880" y="190" />
            </Array>
          </mxGeometry>
        </mxCell>
        <mxCell id="5ZeVLC0wiHh2iQjLwEtQ-32" style="edgeStyle=orthogonalEdgeStyle;rounded=0;orthogonalLoop=1;jettySize=auto;html=1;entryX=0.5;entryY=0;entryDx=0;entryDy=0;" edge="1" parent="1" source="3Kk0aiweqvM8bFvhu8e7-1" target="5ZeVLC0wiHh2iQjLwEtQ-18">
          <mxGeometry relative="1" as="geometry">
            <Array as="points">
              <mxPoint x="1080" y="190" />
            </Array>
          </mxGeometry>
        </mxCell>
        <mxCell id="5ZeVLC0wiHh2iQjLwEtQ-33" style="edgeStyle=orthogonalEdgeStyle;rounded=0;orthogonalLoop=1;jettySize=auto;html=1;entryX=0.5;entryY=0;entryDx=0;entryDy=0;" edge="1" parent="1" source="3Kk0aiweqvM8bFvhu8e7-1" target="5ZeVLC0wiHh2iQjLwEtQ-19">
          <mxGeometry relative="1" as="geometry">
            <Array as="points">
              <mxPoint x="1280" y="190" />
            </Array>
          </mxGeometry>
        </mxCell>
        <mxCell id="5ZeVLC0wiHh2iQjLwEtQ-34" style="edgeStyle=orthogonalEdgeStyle;rounded=0;orthogonalLoop=1;jettySize=auto;html=1;entryX=0.25;entryY=0;entryDx=0;entryDy=0;" edge="1" parent="1" source="3Kk0aiweqvM8bFvhu8e7-1" target="5ZeVLC0wiHh2iQjLwEtQ-20">
          <mxGeometry relative="1" as="geometry">
            <Array as="points">
              <mxPoint x="1440" y="190" />
            </Array>
          </mxGeometry>
        </mxCell>
        <mxCell id="3Kk0aiweqvM8bFvhu8e7-1" value="&lt;font style=&quot;font-size: 17px;&quot;&gt;int sarja = &lt;font style=&quot;font-size: 17px;&quot;&gt;Serial.read()&lt;/font&gt;&lt;/font&gt;" style="rounded=0;whiteSpace=wrap;html=1;" parent="1" vertex="1">
          <mxGeometry x="200" y="130" width="250" height="100" as="geometry" />
        </mxCell>
        <mxCell id="5ZeVLC0wiHh2iQjLwEtQ-1" value="" style="shape=link;html=1;rounded=0;" edge="1" parent="1">
          <mxGeometry width="100" relative="1" as="geometry">
            <mxPoint x="20" y="160" as="sourcePoint" />
            <mxPoint x="200" y="160" as="targetPoint" />
          </mxGeometry>
        </mxCell>
        <mxCell id="5ZeVLC0wiHh2iQjLwEtQ-2" value="numerot 1-10 varattu uusien aikojen lähettämiselle" style="rounded=0;whiteSpace=wrap;html=1;" vertex="1" parent="1">
          <mxGeometry width="160" height="90" as="geometry" />
        </mxCell>
        <mxCell id="5ZeVLC0wiHh2iQjLwEtQ-3" value="numerot 11-255 käytössä komennoille" style="rounded=0;whiteSpace=wrap;html=1;" vertex="1" parent="1">
          <mxGeometry x="170" width="160" height="90" as="geometry" />
        </mxCell>
        <mxCell id="5ZeVLC0wiHh2iQjLwEtQ-4" value="nollaa (0) ei käytetä" style="rounded=0;whiteSpace=wrap;html=1;" vertex="1" parent="1">
          <mxGeometry x="340" width="160" height="90" as="geometry" />
        </mxCell>
        <mxCell id="5ZeVLC0wiHh2iQjLwEtQ-5" value="switch(sarja)" style="swimlane;fontStyle=0;childLayout=stackLayout;horizontal=1;startSize=30;horizontalStack=0;resizeParent=1;resizeParentMax=0;resizeLast=0;collapsible=1;marginBottom=0;whiteSpace=wrap;html=1;" vertex="1" parent="1">
          <mxGeometry x="270" y="300" width="140" height="410" as="geometry" />
        </mxCell>
        <mxCell id="5ZeVLC0wiHh2iQjLwEtQ-6" value="case 20:" style="text;strokeColor=#666666;fillColor=#f5f5f5;align=left;verticalAlign=middle;spacingLeft=4;spacingRight=4;overflow=hidden;points=[[0,0.5],[1,0.5]];portConstraint=eastwest;rotatable=0;whiteSpace=wrap;html=1;fontColor=#333333;" vertex="1" parent="5ZeVLC0wiHh2iQjLwEtQ-5">
          <mxGeometry y="30" width="140" height="120" as="geometry" />
        </mxCell>
        <mxCell id="5ZeVLC0wiHh2iQjLwEtQ-7" value="case 30:" style="text;strokeColor=#666666;fillColor=#f5f5f5;align=left;verticalAlign=middle;spacingLeft=4;spacingRight=4;overflow=hidden;points=[[0,0.5],[1,0.5]];portConstraint=eastwest;rotatable=0;whiteSpace=wrap;html=1;fontColor=#333333;" vertex="1" parent="5ZeVLC0wiHh2iQjLwEtQ-5">
          <mxGeometry y="150" width="140" height="120" as="geometry" />
        </mxCell>
        <mxCell id="5ZeVLC0wiHh2iQjLwEtQ-8" value="case 40:" style="text;strokeColor=#666666;fillColor=#f5f5f5;align=left;verticalAlign=middle;spacingLeft=4;spacingRight=4;overflow=hidden;points=[[0,0.5],[1,0.5]];portConstraint=eastwest;rotatable=0;whiteSpace=wrap;html=1;fontColor=#333333;" vertex="1" parent="5ZeVLC0wiHh2iQjLwEtQ-5">
          <mxGeometry y="270" width="140" height="140" as="geometry" />
        </mxCell>
        <mxCell id="5ZeVLC0wiHh2iQjLwEtQ-28" style="edgeStyle=orthogonalEdgeStyle;rounded=0;orthogonalLoop=1;jettySize=auto;html=1;" edge="1" parent="1" source="5ZeVLC0wiHh2iQjLwEtQ-10" target="5ZeVLC0wiHh2iQjLwEtQ-27">
          <mxGeometry relative="1" as="geometry" />
        </mxCell>
        <mxCell id="5ZeVLC0wiHh2iQjLwEtQ-29" style="edgeStyle=orthogonalEdgeStyle;rounded=0;orthogonalLoop=1;jettySize=auto;html=1;entryX=0;entryY=0.5;entryDx=0;entryDy=0;" edge="1" parent="1" source="5ZeVLC0wiHh2iQjLwEtQ-10" target="5ZeVLC0wiHh2iQjLwEtQ-26">
          <mxGeometry relative="1" as="geometry" />
        </mxCell>
        <mxCell id="5ZeVLC0wiHh2iQjLwEtQ-10" value="allowForce" style="rounded=0;whiteSpace=wrap;html=1;" vertex="1" parent="1">
          <mxGeometry x="600" y="480" width="120" height="60" as="geometry" />
        </mxCell>
        <mxCell id="5ZeVLC0wiHh2iQjLwEtQ-21" style="edgeStyle=orthogonalEdgeStyle;rounded=0;orthogonalLoop=1;jettySize=auto;html=1;entryX=0;entryY=0.5;entryDx=0;entryDy=0;" edge="1" parent="1" source="5ZeVLC0wiHh2iQjLwEtQ-12" target="5ZeVLC0wiHh2iQjLwEtQ-17">
          <mxGeometry relative="1" as="geometry" />
        </mxCell>
        <mxCell id="5ZeVLC0wiHh2iQjLwEtQ-12" value="newTImeValue" style="rounded=0;whiteSpace=wrap;html=1;" vertex="1" parent="1">
          <mxGeometry x="600" y="360" width="120" height="60" as="geometry" />
        </mxCell>
        <mxCell id="5ZeVLC0wiHh2iQjLwEtQ-13" style="edgeStyle=orthogonalEdgeStyle;rounded=0;orthogonalLoop=1;jettySize=auto;html=1;" edge="1" parent="1" source="5ZeVLC0wiHh2iQjLwEtQ-6" target="5ZeVLC0wiHh2iQjLwEtQ-12">
          <mxGeometry relative="1" as="geometry" />
        </mxCell>
        <mxCell id="5ZeVLC0wiHh2iQjLwEtQ-14" style="edgeStyle=orthogonalEdgeStyle;rounded=0;orthogonalLoop=1;jettySize=auto;html=1;entryX=0;entryY=0.5;entryDx=0;entryDy=0;" edge="1" parent="1" source="5ZeVLC0wiHh2iQjLwEtQ-7" target="5ZeVLC0wiHh2iQjLwEtQ-10">
          <mxGeometry relative="1" as="geometry" />
        </mxCell>
        <mxCell id="5ZeVLC0wiHh2iQjLwEtQ-22" style="edgeStyle=orthogonalEdgeStyle;rounded=0;orthogonalLoop=1;jettySize=auto;html=1;entryX=0;entryY=0.5;entryDx=0;entryDy=0;" edge="1" parent="1" source="5ZeVLC0wiHh2iQjLwEtQ-17" target="5ZeVLC0wiHh2iQjLwEtQ-18">
          <mxGeometry relative="1" as="geometry" />
        </mxCell>
        <mxCell id="5ZeVLC0wiHh2iQjLwEtQ-17" value="a=?" style="rounded=0;whiteSpace=wrap;html=1;" vertex="1" parent="1">
          <mxGeometry x="820" y="360" width="120" height="60" as="geometry" />
        </mxCell>
        <mxCell id="5ZeVLC0wiHh2iQjLwEtQ-23" style="edgeStyle=orthogonalEdgeStyle;rounded=0;orthogonalLoop=1;jettySize=auto;html=1;" edge="1" parent="1" source="5ZeVLC0wiHh2iQjLwEtQ-18" target="5ZeVLC0wiHh2iQjLwEtQ-19">
          <mxGeometry relative="1" as="geometry" />
        </mxCell>
        <mxCell id="5ZeVLC0wiHh2iQjLwEtQ-18" value="b=?" style="rounded=0;whiteSpace=wrap;html=1;" vertex="1" parent="1">
          <mxGeometry x="1020" y="360" width="120" height="60" as="geometry" />
        </mxCell>
        <mxCell id="5ZeVLC0wiHh2iQjLwEtQ-24" style="edgeStyle=orthogonalEdgeStyle;rounded=0;orthogonalLoop=1;jettySize=auto;html=1;" edge="1" parent="1" source="5ZeVLC0wiHh2iQjLwEtQ-19" target="5ZeVLC0wiHh2iQjLwEtQ-20">
          <mxGeometry relative="1" as="geometry" />
        </mxCell>
        <mxCell id="5ZeVLC0wiHh2iQjLwEtQ-19" value="c=?" style="rounded=0;whiteSpace=wrap;html=1;" vertex="1" parent="1">
          <mxGeometry x="1220" y="360" width="120" height="60" as="geometry" />
        </mxCell>
        <mxCell id="5ZeVLC0wiHh2iQjLwEtQ-25" style="edgeStyle=orthogonalEdgeStyle;rounded=0;orthogonalLoop=1;jettySize=auto;html=1;entryX=1;entryY=0.5;entryDx=0;entryDy=0;" edge="1" parent="1" source="5ZeVLC0wiHh2iQjLwEtQ-20" target="3Kk0aiweqvM8bFvhu8e7-1">
          <mxGeometry relative="1" as="geometry">
            <Array as="points">
              <mxPoint x="1470" y="160" />
            </Array>
          </mxGeometry>
        </mxCell>
        <mxCell id="5ZeVLC0wiHh2iQjLwEtQ-20" value="setNewTime()" style="rounded=0;whiteSpace=wrap;html=1;" vertex="1" parent="1">
          <mxGeometry x="1410" y="360" width="120" height="60" as="geometry" />
        </mxCell>
        <mxCell id="5ZeVLC0wiHh2iQjLwEtQ-26" value="forceLeft" style="rounded=0;whiteSpace=wrap;html=1;" vertex="1" parent="1">
          <mxGeometry x="830" y="540" width="120" height="60" as="geometry" />
        </mxCell>
        <mxCell id="5ZeVLC0wiHh2iQjLwEtQ-27" value="forceRight" style="rounded=0;whiteSpace=wrap;html=1;" vertex="1" parent="1">
          <mxGeometry x="830" y="460" width="120" height="60" as="geometry" />
        </mxCell>
      </root>
    </mxGraphModel>
  </diagram>
</mxfile>
